A History of Violence (2005)

Director: David Cronenberg

Tom Stall is a mild mannered small town guy. He has a loving wife, two adorable children and a owns a popular diner on the town's main street - he knows his customers and his customers know him right back. Joey Cusack is a notorious Mafia hitman, famed for having gouged out eyes with barbed wire, and noted for his bloody disappearance from Philly. Could they be the same person? Could Tom have an unknown past, concealed from his friends and family? A history of violence?

Two hardened criminals are on the run across the Midwest, leaving a trail of brutally murdered innocents behind them, however when they step into Tom Stall's diner, intending to rob it, he manages to disarm and execute both of the would be thieves. At first his family and community are amazed at this act of heroism, but when a scar-faced gangster (Ed Harris) arrives in town and starts to ask some probing questions about just how Tom was able to dispatch armed two thugs in the blink of an eye, things begin to turn a little sour. Tom's wife Edie (Maria Bello) is forced to face the unpleasant possibility that her husband may not be who he says he is, and, swimming through a mixture of conflicting emotions, is forced to make a decision of whether it matters or not?

A History of Violence is probably Cronenberg's most accessible film to date, and also one of the best graphic novel adaptation's yet made - earning an Academy Award nomination for best adapted screenplay. The central premise - is Tom who he says he is? - maintains a sharp edge on the proceedings, keeping the viewer asking who they believe. A surprisingly good central performance from Viggo "Aragorn" Mortensen is bolstered by the excellent support of Maria Bello and Ed Harris - plus William Hurt's Oscar nominated cameo is quite, quite, brilliant.

Historically David Cronenberg has never shied away from controversy; films like Videodrome, Shivers, Naked Lunch and especially Crash managed to inflame large parts of the community; while A History of Violence doesn't quite reach the "body-horror" extremes that his other movies have visited, it's still a fairly unpleasant, but brilliant, movie.

Most of the film was shot in Millbrook, Ontario, and the climactic scene was shot at the historic Eaton Hall Mansion, located in King City, Ontario, Canada.

Media Info:
General
Complete name                    : J:\Seeding\A History of Violence (2005)[DVDRip][big_dad_e™]\A History of Violence (2005)[DVDRip][big_dad_e™].AVI
Format                           : AVI
Format/Info                      : Audio Video Interleave
File size                        : 1.16 GiB
Duration                         : 1h 35mn
Overall bit rate                 : 1 742 Kbps

Video
ID                               : 0
Format                           : MPEG-4 Visual
Format profile                   : Simple@L3
Format settings, BVOP            : No
Format settings, QPel            : No
Format settings, GMC             : No warppoints
Format settings, Matrix          : Default (H.263)
Codec ID                         : XVID
Codec ID/Hint                    : XviD
Duration                         : 1h 35mn
Bit rate                         : 1 409 Kbps
Width                            : 712 pixels
Height                           : 462 pixels
Display aspect ratio             : 16:9
Frame rate                       : 23.976 fps
Color space                      : YUV
Chroma subsampling               : 4:2:0
Bit depth                        : 8 bits
Scan type                        : Progressive
Bits/(Pixel*Frame)               : 0.179
Stream size                      : 964 MiB (81%)
Writing library                  : XviD 1.1.2 (UTC 2006-11-01)

Audio
ID                               : 1
Format                           : MPEG Audio
Format version                   : Version 1
Format profile                   : Layer 3
Mode                             : Joint stereo
Codec ID                         : 55
Codec ID/Hint                    : MP3
Duration                         : 1h 35mn
Bit rate mode                    : Constant
Bit rate                         : 320 Kbps
Channel(s)                       : 2 channels
Sampling rate                    : 48.0 KHz
Stream size                      : 219 MiB (18%)
Alignment                        : Split accross interleaves
Interleave, duration             : 24 ms (0.58 video frame)
Interleave, preload duration     : 407 ms
Writing library                  : LAME3.98

File Scan:
Malwarebytes' Anti-Malware 1.50.1.1100
www.malwarebytes.org

Database version: 5518

1/14/2011 3:57:21 AM
mbam-log-2011-01-14 (03-57-21).txt

Scan type: Quick scan
Objects scanned: 6
Time elapsed: 23 second(s)

Memory Processes Infected: 0
Memory Modules Infected: 0
Registry Keys Infected: 0
Registry Values Infected: 0
Registry Data Items Infected: 0
Folders Infected: 0
Files Infected: 0

Memory Processes Infected:
(No malicious items detected)

Memory Modules Infected:
(No malicious items detected)

Registry Keys Infected:
(No malicious items detected)

Registry Values Infected:
(No malicious items detected)

Registry Data Items Infected:
(No malicious items detected)

Folders Infected:
(No malicious items detected)

Files Infected:
(No malicious items detected)

When using TPB please read these important notes:
  
01- Anti-malware apps may warn about keygens, patches, cracks, etc., because of 
    their capabilities, (generating codes, etc.). Sometimes they're added to 
    the virus/spyware database and will be detected as malware. If you don't trust
    the keygens, patches, cracks, etc., don't use them. 
    
02- Before running .exe-files, keygens, patches, cracks, etc., always check first 
    if they can be unpacked. Often some third party added a virus to the 
    original file, repacked it and uploaded it again.

03- Letting anti-malware apps send scan results to their companies can cause
    keygens, patches, cracks, etc., to be added to their virus-database.

04- Firewalls which are set to automatically determine connections will allow 
    apps & malware!. Avoid this by manually configuring your firewall.

05- Usually (new) torrents with many downloads and seeders in a brief period is
    suspicious! Torrents with the Skull & Crossbones icon are trusted.

06- Some people use multiple accounts and post fake comments 
    and/or files trying to spread confusion. They seldom seriously
    comment or have any torrents, or a just a few to look passable.

07- Clicking on unknown links can cause malware to be installed on your machine.
  
08- In general often there are more fake and negative comments than reliable and
    positive comments.

09- In some countries uploading/downloading copyright protected material is 
    forbidden, but showing some appreciation to reliable up-loaders is not.

10- Posting fake and negative comments or fake/infected uploads on TPB can result
    in getting banned from TPB!

Requests?  Find me on SuprBay. http://forum.suprbay.org/member.php?action=profile&uid=91870
 

For reporting bad or suspicious torrents:  
http://forum.suprbay.org/forumdisplay.php?fid=29

For more of my torrents: 
https://thepiratebay.org/user/big_dad_e/  (Secured)

All torrents scanned with:
Norton Anti-virus
Malwarebytes' Anti-malware
 
http://www.pirate-party.us/

ALWAYS SEED & THANKS SEEDERS!